<svg xmlns="http://www.w3.org/2000/svg" width="32" height="32"><g fill="none"><circle cx="16" cy="16" r="16" fill="#4F46E5"/><path fill="#FFF" d="M16 25.438a.553.553 0 0 1-.553-.553v-4.682a.553.553 0 1 1 1.106 0v4.681a.553.553 0 0 1-.553.553zm8.884-.037a.553.553 0 0 1-.553-.553v-1.106a.553.553 0 1 1 1.107 0v1.106a.553.553 0 0 1-.553.553zm-17.768 0a.553.553 0 0 1-.553-.553v-1.106a.553.553 0 1 1 1.106 0v1.106a.553.553 0 0 1-.553.553zm17.768-3.318a.553.553 0 0 1-.553-.553v-1.106a.553.553 0 1 1 1.107 0v1.106a.553.553 0 0 1-.553.553zm-17.768 0a.553.553 0 0 1-.553-.553v-1.106a.553.553 0 1 1 1.106 0v1.106a.553.553 0 0 1-.553.553zm11.096-.221a.553.553 0 0 1-.553-.553v-1.106A1.66 1.66 0 0 0 16 18.543a1.66 1.66 0 0 0-1.659 1.66v1.106a.553.553 0 1 1-1.106 0v-1.106a2.77 2.77 0 0 1 2.212-2.71v-1.898h-.65c-.492 0-.934-.274-1.154-.714l-.381-.761h-1.87a.553.553 0 1 1 0-1.106h2.212c.21 0 .4.118.494.306l.534 1.067a.183.183 0 0 0 .165.101h2.406c.07 0 .134-.039.165-.101l.534-1.067a.553.553 0 0 1 .494-.306h2.212a.553.553 0 1 1 0 1.106h-1.87l-.38.761c-.22.44-.663.713-1.155.713h-.65v1.9a2.77 2.77 0 0 1 2.212 2.709v1.106a.553.553 0 0 1-.553.553zm6.672-3.097a.553.553 0 0 1-.553-.553v-1.106a.553.553 0 1 1 1.107 0v1.106a.553.553 0 0 1-.553.553zm-17.768 0a.553.553 0 0 1-.553-.553v-1.106a.553.553 0 1 1 1.106 0v1.106a.553.553 0 0 1-.553.553zm17.768-3.318a.553.553 0 0 1-.553-.553v-1.106a.553.553 0 1 1 1.107 0v1.106a.553.553 0 0 1-.553.553zm-17.768 0a.553.553 0 0 1-.553-.553v-1.106a.553.553 0 1 1 1.106 0v1.106a.553.553 0 0 1-.553.553zm17.768-3.318a.553.553 0 0 1-.553-.553V10.47a.553.553 0 1 1 1.107 0v1.106a.553.553 0 0 1-.553.553zm-17.768 0a.553.553 0 0 1-.553-.553V10.47a.553.553 0 1 1 1.106 0v1.106a.553.553 0 0 1-.553.553zm10.359-.037a.551.551 0 0 1-.391-.162L16 10.847l-1.084 1.083a.553.553 0 1 1-.782-.782l1.475-1.474a.553.553 0 0 1 .782 0l1.475 1.474a.553.553 0 0 1-.391.944zm0-2.949a.551.551 0 0 1-.391-.162L16 7.898 14.916 8.98a.553.553 0 1 1-.782-.782l1.475-1.475a.553.553 0 0 1 .782 0L17.866 8.2a.553.553 0 0 1-.391.944zm7.41-.332a.553.553 0 0 1-.554-.553V7.152a.553.553 0 1 1 1.107 0v1.106a.553.553 0 0 1-.553.553zm-17.77 0a.553.553 0 0 1-.553-.553V7.152a.553.553 0 1 1 1.106 0v1.106a.553.553 0 0 1-.553.553z"/></g></svg>